<?xml version="1.0" standalone="no"?>
<!DOCTYPE svg PUBLIC "-//W3C//DTD SVG 20010904//EN"
 "http://www.w3.org/TR/2001/REC-SVG-20010904/DTD/svg10.dtd">
<svg version="1.0" xmlns="http://www.w3.org/2000/svg"
 width="450.000000pt" height="450.000000pt" viewBox="0 0 450.000000 450.000000"
 preserveAspectRatio="xMidYMid meet">
<metadata>
Created by potrace 1.11, written by Peter Selinger 2001-2013
</metadata>
<g transform="translate(0.000000,450.000000) scale(0.100000,-0.100000)"
fill="#000000" stroke="none">
<path d="M2410 2987 c-3 -3 -29 -7 -58 -11 -155 -18 -328 -138 -421 -290 -40
-66 -86 -197 -100 -281 -10 -64 -7 -307 4 -365 15 -76 56 -188 92 -250 60
-103 172 -208 273 -258 115 -56 193 -71 343 -67 134 3 202 20 311 78 71 38
179 144 225 221 39 65 90 209 99 281 9 68 9 278 -1 344 -32 223 -183 440 -370
531 -45 21 -112 46 -149 53 -63 14 -238 23 -248 14z m253 -202 c77 -26 120
-56 171 -118 86 -105 127 -258 121 -455 -5 -169 -19 -233 -78 -344 -79 -152
-217 -229 -400 -223 -223 6 -351 129 -413 396 -12 53 -12 277 1 344 31 166 98
278 215 358 96 66 258 84 383 42z"/>
<path d="M100 2244 c0 -615 2 -728 14 -740 11 -10 41 -14 110 -14 l96 0 0 726
c0 615 -2 728 -14 740 -11 10 -41 14 -110 14 l-96 0 0 -726z"/>
<path d="M690 2245 c0 -616 2 -729 14 -741 11 -10 41 -14 110 -14 l96 0 0 295
0 295 153 1 c181 0 221 4 308 29 178 52 269 182 275 391 7 241 -111 397 -345
456 -14 3 -158 8 -318 10 l-293 5 0 -727z m579 527 c94 -32 136 -88 147 -198
13 -127 -31 -224 -126 -278 -54 -30 -57 -31 -217 -34 l-163 -4 0 266 0 267
156 -2 c112 -1 169 -5 203 -17z"/>
<path d="M3470 2244 c0 -615 2 -728 14 -740 11 -10 41 -14 110 -14 l96 0 0
295 0 295 163 1 c188 1 213 4 287 25 175 50 273 172 286 357 12 163 -31 292
-128 383 -109 102 -209 124 -569 124 l-259 0 0 -726z m620 510 c80 -45 105
-98 105 -219 0 -74 -4 -98 -23 -137 -51 -104 -138 -138 -349 -138 l-133 0 0
266 0 266 173 -4 c172 -3 172 -3 227 -34z"/>
</g>
</svg>
