<?xml version="1.0" standalone="no"?>
<!DOCTYPE svg PUBLIC "-//W3C//DTD SVG 20010904//EN"
 "http://www.w3.org/TR/2001/REC-SVG-20010904/DTD/svg10.dtd">
<svg version="1.0" xmlns="http://www.w3.org/2000/svg"
 width="260.000000pt" height="260.000000pt" viewBox="0 0 260.000000 260.000000"
 preserveAspectRatio="xMidYMid meet">
<metadata>
Created by potrace 1.11, written by Peter Selinger 2001-2013
</metadata>
<g transform="translate(0.000000,260.000000) scale(0.100000,-0.100000)"
fill="#000000" stroke="none">
<path d="M1268 2555 c-1 -1 -28 -5 -58 -8 -321 -29 -621 -179 -814 -408 -96
-114 -192 -312 -220 -454 -4 -16 -9 -41 -11 -55 -28 -137 -27 -422 1 -580 14
-79 58 -211 96 -289 165 -334 532 -604 893 -655 22 -3 69 -10 105 -15 69 -9
382 -7 465 3 224 28 449 90 643 177 l62 28 0 566 0 565 -30 0 c-25 0 -30 4
-30 25 l0 25 -470 0 -470 0 0 -200 0 -200 30 0 c25 0 30 -4 30 -25 l0 -25 155
0 155 0 -2 -207 -3 -208 -70 -19 c-108 -29 -372 -28 -478 2 -85 24 -165 62
-212 100 -77 63 -148 189 -186 334 -19 71 -23 108 -22 263 0 152 3 192 21 260
46 170 140 312 259 391 53 35 150 80 191 89 10 2 49 10 87 19 92 19 330 15
440 -8 158 -34 363 -109 473 -173 l42 -25 0 245 0 245 -30 11 c-16 5 -30 16
-30 24 0 13 -108 62 -195 89 -106 33 -247 64 -380 84 -43 6 -431 15 -437 9z"/>
</g>
</svg>
